<?xml version="1.0" encoding="utf-8"?>
<!-- Generator: Adobe Illustrator 26.2.1, SVG Export Plug-In . SVG Version: 6.00 Build 0)  -->
<svg version="1.1" xmlns="http://www.w3.org/2000/svg" xmlns:xlink="http://www.w3.org/1999/xlink" x="0px" y="0px" width="297px"
	 height="64px" viewBox="0 0 297 64" style="enable-background:new 0 0 297 64;" xml:space="preserve">
<style type="text/css">
	.st0{display:none;}
	.st1{display:inline;}
	.st2{fill:#FFFFFF;}
	
		.st3{clip-path:url(#XMLID_00000012446247266451222660000009186029814359531163_);fill:url(#XMLID_00000010277562583635117890000003183022695377405066_);}
	
		.st4{clip-path:url(#XMLID_00000036947830945063713080000001856374531070722197_);fill:url(#XMLID_00000045581611241573287910000009743611409198424749_);}
	.st5{opacity:0.4;}
	.st6{clip-path:url(#XMLID_00000117659604984570171220000007613455641156906141_);}
	.st7{filter:url(#Adobe_OpacityMaskFilter);}
	.st8{clip-path:url(#XMLID_00000121988391276364534150000018345117683758156701_);fill:url(#SVGID_1_);}
	
		.st9{clip-path:url(#XMLID_00000121988391276364534150000018345117683758156701_);mask:url(#XMLID_00000016777947323627137490000004391432517670520212_);fill:url(#XMLID_00000083078855812618755660000012990744631199201419_);}
	.st10{opacity:0.5;}
	.st11{clip-path:url(#XMLID_00000084498657441510384390000012800670521985936822_);}
	.st12{filter:url(#Adobe_OpacityMaskFilter_00000118355594485192434860000013756424870687695025_);}
	
		.st13{clip-path:url(#XMLID_00000126314246227036626240000013740616603837608620_);fill:url(#SVGID_00000151518071594700802890000010498725546088387002_);}
	
		.st14{clip-path:url(#XMLID_00000126314246227036626240000013740616603837608620_);mask:url(#XMLID_00000129887672924721370650000002191933015115467924_);fill:url(#XMLID_00000133515236037139267460000003943026213196540059_);}
	
		.st15{clip-path:url(#XMLID_00000013897350364162657690000001037529529051600310_);fill:url(#XMLID_00000159445223285199257240000004032421504365312952_);}
	
		.st16{clip-path:url(#XMLID_00000019659051465681106110000005268020619366667680_);fill:url(#XMLID_00000059303147155694461660000012003733381008512435_);}
	
		.st17{clip-path:url(#XMLID_00000017494633314597375370000018167328705138886331_);fill:url(#XMLID_00000044896794617074007530000014812294913215952804_);}
	.st18{opacity:0.8;}
	.st19{clip-path:url(#XMLID_00000086667202686037430410000010971155912905218975_);}
	.st20{filter:url(#Adobe_OpacityMaskFilter_00000147201193912272299980000002338540778149468299_);}
	
		.st21{clip-path:url(#XMLID_00000066509810988486535620000014664255677175781290_);fill:url(#SVGID_00000109741562934715154340000005369135453630544264_);}
	
		.st22{clip-path:url(#XMLID_00000066509810988486535620000014664255677175781290_);mask:url(#XMLID_00000052101954081339210700000014462601228876703619_);fill:url(#XMLID_00000023993562432468555890000012061034221871775916_);}
	.st23{clip-path:url(#XMLID_00000147931466671021687130000015258054960376684181_);}
	.st24{filter:url(#Adobe_OpacityMaskFilter_00000167375114828850705910000001912834398818756501_);}
	
		.st25{clip-path:url(#XMLID_00000149342154104224682830000017839010221204369846_);fill:url(#SVGID_00000003066910961564719710000006528537439189008265_);}
	
		.st26{clip-path:url(#XMLID_00000149342154104224682830000017839010221204369846_);mask:url(#XMLID_00000132795935127886679170000016677012523245198500_);fill:url(#XMLID_00000059311779857227139690000010878312899384551826_);}
	.st27{opacity:0.6;}
	.st28{clip-path:url(#XMLID_00000162353490207237191290000005306315825219910549_);}
	.st29{filter:url(#Adobe_OpacityMaskFilter_00000039828762889718095700000008108394025501479355_);}
	
		.st30{clip-path:url(#XMLID_00000025443160106050629780000014348130790328875187_);fill:url(#SVGID_00000031917698242658977780000008335763456503788930_);}
	
		.st31{clip-path:url(#XMLID_00000025443160106050629780000014348130790328875187_);mask:url(#XMLID_00000078029677647477753420000013620621822162276992_);fill:url(#XMLID_00000144331711938734804360000003644981007094772096_);}
	
		.st32{clip-path:url(#XMLID_00000098923147341309155360000015856624287180145074_);fill:url(#XMLID_00000023962278047309716080000003643966642378829238_);}
	
		.st33{clip-path:url(#XMLID_00000085941362921680970390000001013419683062482562_);fill:url(#XMLID_00000084530626150833554930000017550068181498417280_);}
	
		.st34{clip-path:url(#XMLID_00000149359021104036188830000017828884593273788556_);fill:url(#XMLID_00000048494073959244884990000007801404933544073640_);}
	
		.st35{clip-path:url(#XMLID_00000068643363336598827830000000522390860498307000_);fill:url(#XMLID_00000166637844357130832840000004781992604643075490_);}
	
		.st36{clip-path:url(#XMLID_00000163776747558700671070000004362432863248869551_);fill:url(#XMLID_00000093896153268105431840000017033831243493567137_);}
	.st37{filter:url(#Adobe_OpacityMaskFilter_00000181808435380842546520000013953703754416985738_);}
	.st38{enable-background:new    ;}
	.st39{filter:url(#Adobe_OpacityMaskFilter_00000106855977112703393540000012542044763433527203_);}
	
		.st40{clip-path:url(#SVGID_00000116925098873030824080000008564572629935711635_);mask:url(#XMLID_00000164485285548645745610000001875337205831461516_);fill:url(#SVGID_00000089540764380955981750000007744205012372306832_);}
	.st41{clip-path:url(#XMLID_00000009568295607384927680000017556609059769386399_);}
	
		.st42{clip-path:url(#XMLID_00000120523281094888442250000001754976366266733491_);fill:url(#XMLID_00000055678864629734482640000015554512853833158275_);}
	.st43{filter:url(#Adobe_OpacityMaskFilter_00000126298946644330793350000000863842176753565093_);}
	.st44{filter:url(#Adobe_OpacityMaskFilter_00000103952751362395849870000011552648602431690137_);}
	.st45{mask:url(#XMLID_00000147193456738715402680000017486575064246473887_);}
	
		.st46{clip-path:url(#SVGID_00000155121122157386684100000004121652665188318110_);fill:url(#SVGID_00000058581944907582001680000006896442622566732970_);}
	.st47{clip-path:url(#XMLID_00000166675055469188863130000016971945974417358000_);}
	
		.st48{clip-path:url(#XMLID_00000178926647124049811100000004299053191552010150_);fill:url(#XMLID_00000111889286612723238090000016395944507419772850_);}
	.st49{fill:#0054A5;}
	.st50{fill:#F08400;}
	.st51{fill-rule:evenodd;clip-rule:evenodd;fill:#BED630;}
	.st52{fill-rule:evenodd;clip-rule:evenodd;}
	.st53{fill:#EC1C24;}
	.st54{fill:#A6A8AB;}
	.st55{fill-rule:evenodd;clip-rule:evenodd;fill:#00529B;}
	.st56{fill:#FFC121;}
	.st57{fill:#002F87;}
	.st58{fill:#E50013;}
	.st59{fill:#B81D23;}
	.st60{fill:#4C4949;}
	.st61{clip-path:url(#XMLID_00000111900827284151248370000002346526565180613014_);fill:#231F20;}
	.st62{fill:#231F20;}
	.st63{fill:#E60030;}
	.st64{fill-rule:evenodd;clip-rule:evenodd;fill:#FFFFFF;}
	.st65{opacity:0.12;}
	.st66{fill:#808184;}
	.st67{fill:#001A70;}
	.st68{fill-rule:evenodd;clip-rule:evenodd;fill:#76BC21;}
	.st69{fill-rule:evenodd;clip-rule:evenodd;fill:#001A70;}
	.st70{fill:#1D2087;}
	.st71{fill:#B91E22;}
	.st72{fill-rule:evenodd;clip-rule:evenodd;fill:#0067AB;}
	.st73{fill:#005197;}
	.st74{fill:#009CE1;}
	.st75{fill:#8CD21E;}
	.st76{fill:#FFAA00;}
	.st77{display:none;fill:#1B75BB;}
	.st78{fill:#00953B;}
	.st79{fill:#003A70;}
	.st80{fill:#D7282F;}
	.st81{fill:url(#XMLID_00000076592724023663841340000018027292243102198166_);}
	.st82{fill:url(#XMLID_00000021082539718053616340000011332798882364294054_);}
	.st83{fill:#00529B;}
	.st84{fill:#00698C;}
	.st85{fill:#E92B23;}
	.st86{fill:none;stroke:#231F20;stroke-width:0.3351;stroke-miterlimit:10;}
	.st87{fill:#006C92;}
	.st88{fill:#8ED300;}
	.st89{fill:#EB008B;}
	.st90{fill:#1A1A1A;}
	.st91{fill-rule:evenodd;clip-rule:evenodd;fill:#171C7A;}
	.st92{stroke:#000000;stroke-width:0.2954;}
</style>
<g id="Layer_2" class="st0">
	<g id="XMLID_00000003072887811233651070000018412647504602719361_" class="st1">
		<rect x="-173.47" y="-1083.47" class="st2" width="1351.94" height="1360.94"/>
		<path d="M1177.94-1082.94V276.94H-172.94v-1359.88H1177.94 M1179-1084H-174V278h1353V-1084L1179-1084z"/>
	</g>
</g>
<g id="Layer_1">
	<g id="XMLID_00000061432508340371493730000014050254847648315031_">
		<path id="XMLID_00000134947333348923189380000014283301282857613473_" class="st2" d="M0,9.99V55.4L64,64V0L0,9.99z M40.74,40.13
			l-30.72,4.73V14.14l30.72,4.79V40.13z"/>
		<path id="XMLID_00000120524166665597161550000000026710686455174031_" class="st2" d="M81.65,52.67h5.16v11.06h2.08V52.67h5.15
			v-1.24H81.65V52.67z M105.7,51.44l-6.55,12.3h2.11l1.78-3.51h6.85l1.74,3.51h2.31l-6.25-12.3H105.7z M103.65,59l2.59-5.14
			c0.11-0.21,0.16-0.3,0.3-0.64c0.16,0.39,0.19,0.45,0.27,0.64l2.48,5.14H103.65z M122.43,63.74h2.08v-12.3h-2.08V63.74z
			 M142.02,51.81c-0.94-0.33-1.67-0.38-2.68-0.38h-4.63v12.32h2.11v-5.22h0.84c1.33,0,3.23-0.04,4.72-0.76
			c1.44-0.67,2.2-1.85,2.2-2.95C144.59,53.79,143.86,52.45,142.02,51.81z M140.97,56.75c-1.06,0.52-2.5,0.47-3.07,0.45l-1.08,0.01
			v-4.54h2.2c1.63,0,3.3,0.51,3.3,2.16C142.32,55.65,141.77,56.36,140.97,56.75z M155.41,57.88h6.04v-1.25h-6.04v-3.97h6.94v-1.24
			h-9.05v12.32h9.05l0.98-1.25h-7.92V57.88z M171.73,51.44v12.3h2.09v-12.3H171.73z"/>
		<path id="XMLID_00000116203323403784934660000008389247732075491493_" class="st2" d="M98.23,38.33
			c-5.77-0.01-9.01-3.36-9.02-7.66c0.01-4.08,3.02-7.51,8.49-7.53c2.94,0,4.95,1.18,5.85,1.7l0.49,0.28v-5.99l-0.25-0.07
			c-1.74-0.47-3.96-0.97-6.88-0.97c-9.99,0.03-15.23,6.09-15.25,12.83c0.02,6.92,5.56,12.3,14.78,12.31c2.83,0,4.46-0.42,5.4-0.64
			l0.13-0.04l0.06-0.11l3.61-5.7l-0.9,0.35C102.68,37.88,100.46,38.33,98.23,38.33z M293.91,42.13l-8.61-11.98l8.52-11.44h-8.14
			l-4.3,6.06l-4.22-6.06h-8.17l8.43,11.54l-9.12,12.4h7.99l4.97-6.95l4.8,6.96h8.21L293.91,42.13z M223.31,23.97h7.26v18.67h7.26
			V23.96l7.2,0.01V18.7h-21.72V23.97z M255.74,37.38v-4.44h8.45v-5.19h-8.45v-3.82h9.86V18.7h-17.12v23.94h15.98l0.1-0.14l3.85-5.13
			H255.74z M185.99,18.7h-11.47v23.95h7.27V33.4h2.95c1.95-0.04,6.38-0.08,8.92-3.39c0.84-1.12,1.32-2.57,1.32-4.03
			C194.98,21.1,190.61,18.71,185.99,18.7z M186.77,28.07c-0.79,0.63-1.83,0.69-2.49,0.69h-2.49v-5.09h2.52
			c1.92,0.03,3.38,0.75,3.38,2.56C187.68,26.95,187.38,27.61,186.77,28.07z M121.6,18.1c-8.81,0.01-14.23,5.56-14.24,12.56
			c0.01,7.18,5.4,12.56,14.39,12.58c9-0.02,14.01-6.1,14.02-12.71C135.75,23.83,130.51,18.12,121.6,18.1z M121.6,37.97
			c-4.13-0.01-6.56-3.16-6.59-7.32c0.02-4.31,2.6-7.4,6.59-7.4c4.05,0.01,6.49,3.12,6.51,7.5C128.09,34.16,126.09,37.97,121.6,37.97
			z M160.65,18.7l-6.45,12.55l-6.39-12.55h-7.14l-2.96,23.95h7.02l1.37-14.41l7.39,14.4h1.33l7.5-14.35l1.3,14.35h7.17l-3.08-23.94
			H160.65z M213.48,37.29L213.48,37.29l0-0.03c-1.73,1.09-3.24,1.39-5.64,1.39c-1.72,0-2.93-0.88-3.25-2.19
			c-0.16-0.65-0.16-1.38-0.16-2.8V18.87h-6.55v17.71c0.04,1.5,0.08,3.5,1.96,5.07c0.94,0.81,2.74,1.58,5.53,1.58
			c1.85,0,4.27-0.74,7-2.84l1.12-0.85v3.21h6.37V18.78h-6.37V37.29z"/>
	</g>
</g>
</svg>
